name C:\Users\u0101727\Documents\MyRepositories\paper-ad\trackingsimulations_3d\Results\TrackSim\IK_c6.mot
datacolumns 32
datarows 10
range 3.85000000 3.99400000
endheader
time	pelvis_tilt	pelvis_list	pelvis_rotation	pelvis_tx	pelvis_ty	pelvis_tz	hip_flexion_l	hip_adduction_l	hip_rotation_l	hip_flexion_r	hip_adduction_r	hip_rotation_r	knee_angle_l	knee_angle_r	ankle_angle_l	ankle_angle_r	subtalar_angle_l	subtalar_angle_r	lumbar_extension	lumbar_bending	lumbar_rotation	arm_flex_l	arm_add_l	arm_rot_l	arm_flex_r	arm_add_r	arm_rot_r	elbow_flex_l	elbow_flex_r	pro_sup_l	pro_sup_r	
          3.85000000	          0.36669293	         -3.33216725	          7.02414399	          0.01897614	          0.91621699	         -0.22322165	        -11.20321451	         -4.85344977	          1.51406801	         29.43739623	          4.15162868	         -7.64711027	        -35.41858045	        -30.57313150	         -7.15314406	         -6.39967501	         13.05239914	        -11.44069136	         -3.80127033	          5.53159731	         -8.47084180	         -1.77253757	        -14.60641635	         19.18052587	         -9.22843903	        -15.63229337	         14.49411927	         22.96939075	         11.69741038	         86.51662706	         86.51662706	
          3.86600000	          0.53276363	         -4.26173450	          6.87822745	          0.04209822	          0.91873121	         -0.22213036	         -9.14124981	         -5.95763981	          1.36000909	         28.28742361	          5.45462418	         -7.61186598	        -39.80380801	        -30.97845999	        -12.59773537	         -6.83563874	         12.07555174	        -11.76973455	         -3.58789688	          6.75087007	         -8.06977351	         -2.29190731	        -14.09098363	         19.47329637	         -9.02969385	        -15.92048430	         14.47765692	         21.83947572	         11.97018236	         86.51662706	         86.51662706	
          3.88200000	          0.72802114	         -5.02545443	          6.83039709	          0.06432557	          0.92127606	         -0.22131724	         -6.73214937	         -6.70645176	          1.87292297	         26.76818911	          6.49291946	         -7.86047185	        -44.41405797	        -30.96380224	        -16.05784824	         -6.22838850	         10.98382174	        -11.67760002	         -3.54708313	          7.77721330	         -7.68068241	         -2.66390635	        -13.63849934	         19.90673957	         -8.72225913	        -16.20952611	         14.34630677	         20.75012418	         12.41150196	         86.51662706	         86.51662706	
          3.89800000	          0.95026397	         -5.68961930	          6.87851132	          0.08564834	          0.92380331	         -0.22068066	         -4.11178873	         -7.21230998	          2.77270855	         24.89707542	          7.42057042	         -8.07544901	        -48.88009727	        -30.45139385	        -18.26999529	         -4.99130467	          9.74511970	        -11.27799592	         -3.66439658	          8.67731681	         -7.29079291	         -2.89323484	        -13.26962740	         20.48577628	         -8.33112116	        -16.51016515	         14.11889788	         19.76540946	         13.07960932	         86.51662706	         86.51662706	
          3.91400000	          1.17994785	         -6.15856213	          7.03458603	          0.10609976	          0.92643593	         -0.22022586	         -1.27799588	         -7.36648349	          3.95331176	         22.74619063	          8.15868419	         -8.14775289	        -53.17920405	        -29.50184129	        -19.20895207	         -3.40017855	          8.16694756	        -10.66673948	         -3.91432531	          9.33754033	         -6.92636328	         -2.99871979	        -13.01086671	         21.17095788	         -7.88858210	        -16.80453891	         13.82460828	         18.91431608	         14.02317073	         86.51662706	         86.51662706	
          3.93000000	          1.39366271	         -6.40270798	          7.29951629	          0.12577095	          0.92919877	         -0.21994240	          1.73394894	         -7.14174899	          5.31624543	         20.41491800	          8.66606248	         -8.12081319	        -57.21328036	        -28.21394384	        -18.48574983	         -1.67145160	          6.42363439	         -9.94187118	         -4.24794068	          9.71820259	         -6.60674625	         -3.01832675	        -12.87043981	         21.89347283	         -7.42952876	        -17.08750533	         13.48522253	         18.22694423	         15.25679724	         86.51662706	         86.51662706	
          3.94600000	          1.56559684	         -6.40575658	          7.62951149	          0.14481019	          0.93205697	         -0.21975269	          4.85837055	         -6.55075817	          6.72346013	         18.00944640	          8.91944549	         -8.04885227	        -60.76795726	        -26.71623278	        -16.83194070	          0.05284824	          5.11366296	         -9.15844935	         -4.60923793	          9.79180921	         -6.31529464	         -3.00674678	        -12.84747013	         22.55895352	         -6.98320432	        -17.35416582	         13.12156856	         17.72808676	         16.75921397	         86.51662706	         86.51662706	
          3.96200000	          1.66369016	         -6.18212884	          7.93729735	          0.16337132	          0.93490373	         -0.21953696	          8.02146554	         -5.64788283	          7.94763016	         15.63911261	          8.94190575	         -7.90631698	        -63.66463173	        -25.14049036	        -14.47725859	          1.68148183	          3.92833231	         -8.36517549	         -4.94113245	          9.56693651	         -5.99177542	         -3.02235845	        -12.92676983	         23.06610882	         -6.56573122	        -17.60680855	         12.75027264	         17.43946662	         18.47300047	         86.51662706	         86.51662706	
          3.97800000	          1.67388887	         -5.77077112	          8.13485477	          0.18158633	          0.93762425	         -0.21918519	         11.14364020	         -4.52800871	          8.83956416	         13.37392356	          8.76947614	         -7.74862093	        -65.75180876	        -23.58438191	        -11.78981212	          3.17797876	          2.98028310	         -7.59682602	         -5.21418454	          9.08442154	         -5.56458100	         -3.11008576	        -13.08286161	         23.32428923	         -6.18114572	        -17.85392906	         12.38376487	         17.37389206	         20.32548040	         86.51662706	         86.51662706	
          3.99400000	          1.59592131	         -5.22675320	          8.14420493	          0.19954238	          0.94009999	         -0.21859837	         14.15367226	         -3.31420791	          9.30326633	         11.26016042	          8.46339626	         -7.51608354	        -66.92100841	        -22.12193719	         -9.11671286	          4.52779036	          2.27022138	         -6.88938180	         -5.42437535	          8.40627629	         -4.96922774	         -3.29213546	        -13.28580207	         23.27635965	         -5.81666098	        -18.10854438	         12.03164533	         17.52343871	         22.24392811	         86.51662706	         86.51662706	
